<svg width="256" height="52" viewBox="0 0 256 52" fill="none" xmlns="http://www.w3.org/2000/svg">
<g clip-path="url(#clip0_3389_2744)">
<mask id="mask0_3389_2744" style="mask-type:luminance" maskUnits="userSpaceOnUse" x="0" y="0" width="256" height="52">
<path d="M256 0H0V52H256V0Z" fill="white"/>
</mask>
<g mask="url(#mask0_3389_2744)">
<path d="M0.510742 10.23C0.510742 5.13241 4.57029 1 9.57801 1H41.505C46.5128 1 50.5723 5.13241 50.5723 10.23V42.73C50.5723 47.8276 46.5128 51.96 41.505 51.96H9.57801C4.57029 51.96 0.510742 47.8276 0.510742 42.73V10.23Z" stroke="white"/>
<path fill-rule="evenodd" clip-rule="evenodd" d="M12.7715 12.9982H17.8798V18.1982H22.9881V23.3982H28.0964V28.5982H22.9881V33.7982H17.8798V38.9982H12.7715V33.7982V28.5982H17.8798V23.3982H12.7715V18.1982V12.9982ZM28.0964 33.7982V28.5982H33.2048V33.7982H28.0964ZM33.2048 33.7982H38.3131V38.9982H33.2048V33.7982ZM28.0964 33.7982H22.9881V38.9982H28.0964V33.7982ZM33.2048 28.5982V23.3982H28.0964V18.1982H22.9881V12.9982H28.0964H33.2048V18.1982H38.3131V23.3982V28.5982H33.2048Z" fill="white"/>
<path d="M81.2217 35.5767L81.1943 23.9861L75.5777 33.5295H73.6146L67.998 24.2074V35.5767H63.8535V16.2129H67.5071L74.6507 28.246L81.6851 16.2129H85.3388L85.366 35.5767H81.2217Z" fill="white"/>
<path d="M96.3791 35.798C94.8343 35.798 93.4436 35.4753 92.2077 34.8297C90.9898 34.1658 90.0355 33.2531 89.3447 32.0912C88.654 30.9294 88.3086 29.6109 88.3086 28.1355C88.3086 26.6601 88.654 25.3415 89.3447 24.1798C90.0355 23.0179 90.9898 22.1144 92.2077 21.4688C93.4436 20.8049 94.8343 20.4729 96.3791 20.4729C97.924 20.4729 99.3052 20.8049 100.524 21.4688C101.742 22.1144 102.695 23.0179 103.387 24.1798C104.078 25.3415 104.422 26.6601 104.422 28.1355C104.422 29.6109 104.078 30.9294 103.387 32.0912C102.695 33.2531 101.742 34.1658 100.524 34.8297C99.3052 35.4753 97.924 35.798 96.3791 35.798ZM96.3791 32.2572C97.4694 32.2572 98.36 31.8884 99.0512 31.1507C99.7598 30.3947 100.115 29.3896 100.115 28.1355C100.115 26.8814 99.7598 25.8855 99.0512 25.1479C98.36 24.3919 97.4694 24.0137 96.3791 24.0137C95.2886 24.0137 94.3887 24.3919 93.68 25.1479C92.971 25.8855 92.6167 26.8814 92.6167 28.1355C92.6167 29.3896 92.971 30.3947 93.68 31.1507C94.3887 31.8884 95.2886 32.2572 96.3791 32.2572Z" fill="white"/>
<path d="M123.302 32.0358V38.7855H119.349V35.5766H109.042V38.7855H105.089V32.0358H105.688C106.598 32.0174 107.224 31.4734 107.57 30.4036C107.916 29.3341 108.134 27.8127 108.224 25.8394L108.415 20.6941H121.202V32.0358H123.302ZM112.069 26.1437C112.014 27.6558 111.896 28.8915 111.715 29.8504C111.55 30.8095 111.233 31.5378 110.76 32.0358H116.95V24.2349H112.151L112.069 26.1437Z" fill="white"/>
<path d="M140.403 20.6941L133.777 36.4894C133.106 38.2045 132.27 39.4124 131.27 40.1133C130.288 40.814 129.097 41.1644 127.698 41.1644C126.934 41.1644 126.18 41.0445 125.434 40.8047C124.69 40.5649 124.08 40.233 123.607 39.8089L125.162 36.7384C125.489 37.0334 125.862 37.2639 126.279 37.43C126.716 37.5959 127.143 37.679 127.561 37.679C128.143 37.679 128.615 37.5314 128.98 37.2364C129.343 36.9597 129.67 36.4894 129.961 35.8255L130.015 35.6873L123.662 20.6941H128.052L132.169 30.791L136.314 20.6941H140.403Z" fill="white"/>
<path d="M155.214 20.6941V35.5766H150.961V24.2349H146.325L146.188 26.863C146.116 28.8177 145.934 30.4406 145.643 31.7314C145.352 33.0225 144.88 34.0368 144.226 34.7744C143.571 35.512 142.663 35.8809 141.5 35.8809C140.882 35.8809 140.145 35.7702 139.291 35.5489L139.509 32.0081C139.8 32.0451 140.008 32.0634 140.136 32.0634C140.773 32.0634 141.245 31.833 141.554 31.3719C141.881 30.8924 142.099 30.293 142.208 29.5738C142.317 28.8362 142.399 27.8679 142.454 26.6692L142.672 20.6941H155.214Z" fill="white"/>
<path d="M166.965 25.4521C168.874 25.4705 170.337 25.9131 171.354 26.7799C172.374 27.6283 172.882 28.8362 172.882 30.4036C172.882 32.0451 172.31 33.3267 171.164 34.2488C170.037 35.1523 168.447 35.6042 166.393 35.6042L159.031 35.5766V20.6941H163.258V25.4521H166.965ZM166.011 32.5337C166.829 32.5521 167.456 32.377 167.892 32.0081C168.329 31.6392 168.547 31.086 168.547 30.3484C168.547 29.6291 168.329 29.1035 167.892 28.7716C167.474 28.4396 166.848 28.2645 166.011 28.246L163.258 28.2183V32.5337H166.011Z" fill="white"/>
<path d="M183.746 21.7178C185.145 21.7178 186.372 22.0128 187.427 22.603C188.481 23.1747 189.29 23.9862 189.854 25.0373C190.435 26.0886 190.725 27.3057 190.725 28.6888C190.725 30.1087 190.381 31.3721 189.69 32.4786C189.018 33.5666 188.071 34.4148 186.854 35.0235C185.635 35.6135 184.255 35.9087 182.709 35.9087C180.146 35.9087 178.128 35.0787 176.657 33.419C175.202 31.7408 174.476 29.2882 174.476 26.0609C174.476 23.0733 175.111 20.6942 176.384 18.9238C177.674 17.1351 179.647 15.964 182.3 15.4107L189.281 14L189.854 17.7067L183.691 18.9515C182.018 19.2835 180.773 19.8367 179.955 20.6113C179.157 21.3858 178.684 22.4831 178.538 23.9031C179.174 23.2024 179.937 22.6677 180.829 22.2988C181.719 21.9114 182.691 21.7178 183.746 21.7178ZM182.736 32.5615C183.828 32.5615 184.7 32.2018 185.354 31.4827C186.027 30.7634 186.364 29.8505 186.364 28.744C186.364 27.6192 186.027 26.7248 185.354 26.0609C184.7 25.397 183.828 25.065 182.736 25.065C181.627 25.065 180.738 25.397 180.066 26.0609C179.391 26.7248 179.055 27.6192 179.055 28.744C179.055 29.869 179.402 30.7911 180.092 31.5102C180.782 32.2111 181.665 32.5615 182.736 32.5615Z" fill="white"/>
<path d="M198.798 20.4729C201.072 20.4729 202.815 21.0262 204.034 22.1327C205.252 23.2207 205.861 24.8714 205.861 27.0844V35.5767H201.88V33.7232C201.08 35.1064 199.59 35.798 197.409 35.798C196.281 35.798 195.301 35.6043 194.464 35.2171C193.646 34.8297 193.018 34.2949 192.582 33.6126C192.147 32.9304 191.928 32.1558 191.928 31.2889C191.928 29.9059 192.437 28.8179 193.456 28.0248C194.491 27.2318 196.081 26.8354 198.227 26.8354H201.607C201.607 25.8948 201.326 25.1756 200.762 24.6776C200.199 24.1613 199.354 23.9031 198.227 23.9031C197.444 23.9031 196.672 24.0322 195.909 24.2904C195.163 24.5302 194.527 24.8622 194 25.2863L192.474 22.271C193.273 21.6993 194.228 21.2567 195.337 20.9432C196.464 20.6298 197.617 20.4729 198.798 20.4729ZM198.473 32.8934C199.199 32.8934 199.844 32.7274 200.408 32.3954C200.97 32.0452 201.371 31.5379 201.607 30.874V29.3526H198.69C196.945 29.3526 196.072 29.9336 196.072 31.0953C196.072 31.6486 196.281 32.0912 196.699 32.4231C197.136 32.7366 197.727 32.8934 198.473 32.8934Z" fill="white"/>
<path d="M209.283 20.6941H213.509V26.5033H219.888V20.6941H224.142V35.5766H219.888V30.0164H213.509V35.5766H209.283V20.6941Z" fill="white"/>
<path d="M234.403 29.9335H232.195V35.5766H227.941V20.6941H232.195V26.4756H234.484L238.465 20.6941H242.992L237.865 27.8311L243.346 35.5766H238.329L234.403 29.9335Z" fill="white"/>
</g>
</g>
<defs>
<clipPath id="clip0_3389_2744">
<rect width="256" height="52" fill="white"/>
</clipPath>
</defs>
</svg>
